<mxfile host="Electron" agent="Mozilla/5.0 (Windows NT 10.0; Win64; x64) AppleWebKit/537.36 (KHTML, like Gecko) draw.io/26.0.16 Chrome/132.0.6834.196 Electron/34.2.0 Safari/537.36" version="26.0.16">
  <diagram name="Page-1" id="sSQU26P-Heey7KVVtZPq">
    <mxGraphModel dx="794" dy="511" grid="1" gridSize="10" guides="1" tooltips="1" connect="1" arrows="1" fold="1" page="1" pageScale="1" pageWidth="827" pageHeight="1169" math="0" shadow="0">
      <root>
        <mxCell id="0" />
        <mxCell id="1" parent="0" />
        <mxCell id="th7IaA2jTdw9Y4NXe-Cr-1" value="Diagramme de Cas D&#39;utilisation&amp;nbsp;Tawssil " style="swimlane;whiteSpace=wrap;html=1;" parent="1" vertex="1">
          <mxGeometry x="90" y="20" width="630" height="520" as="geometry" />
        </mxCell>
        <mxCell id="th7IaA2jTdw9Y4NXe-Cr-8" value="&lt;div&gt;&lt;p data-pm-slice=&quot;1 1 [&amp;quot;ordered_list&amp;quot;,{&amp;quot;spread&amp;quot;:true,&amp;quot;startingNumber&amp;quot;:1,&amp;quot;start&amp;quot;:73,&amp;quot;end&amp;quot;:869},&amp;quot;regular_list_item&amp;quot;,{&amp;quot;start&amp;quot;:294,&amp;quot;end&amp;quot;:514},&amp;quot;list&amp;quot;,{&amp;quot;spread&amp;quot;:false,&amp;quot;start&amp;quot;:324,&amp;quot;end&amp;quot;:514},&amp;quot;regular_list_item&amp;quot;,{&amp;quot;start&amp;quot;:397,&amp;quot;end&amp;quot;:432}]&quot;&gt;Suivre l&#39;itinéraire en temps réel&lt;/p&gt;&lt;/div&gt;" style="ellipse;whiteSpace=wrap;html=1;" parent="th7IaA2jTdw9Y4NXe-Cr-1" vertex="1">
          <mxGeometry x="52.5" y="280" width="120" height="40" as="geometry" />
        </mxCell>
        <mxCell id="th7IaA2jTdw9Y4NXe-Cr-10" value="Registre" style="ellipse;whiteSpace=wrap;html=1;" parent="th7IaA2jTdw9Y4NXe-Cr-1" vertex="1">
          <mxGeometry x="270" y="60" width="120" height="50" as="geometry" />
        </mxCell>
        <mxCell id="th7IaA2jTdw9Y4NXe-Cr-12" value="Processus&lt;div&gt;Paymant&lt;/div&gt;" style="ellipse;whiteSpace=wrap;html=1;" parent="th7IaA2jTdw9Y4NXe-Cr-1" vertex="1">
          <mxGeometry x="225" y="140" width="110" height="40" as="geometry" />
        </mxCell>
        <mxCell id="th7IaA2jTdw9Y4NXe-Cr-14" value="&lt;p data-pm-slice=&quot;1 1 [&amp;quot;ordered_list&amp;quot;,{&amp;quot;spread&amp;quot;:true,&amp;quot;startingNumber&amp;quot;:1,&amp;quot;start&amp;quot;:73,&amp;quot;end&amp;quot;:869},&amp;quot;regular_list_item&amp;quot;,{&amp;quot;start&amp;quot;:664,&amp;quot;end&amp;quot;:869},&amp;quot;list&amp;quot;,{&amp;quot;spread&amp;quot;:false,&amp;quot;start&amp;quot;:691,&amp;quot;end&amp;quot;:869},&amp;quot;regular_list_item&amp;quot;,{&amp;quot;start&amp;quot;:691,&amp;quot;end&amp;quot;:739}]&quot;&gt;Gérer les utilisateurs&lt;/p&gt;" style="ellipse;whiteSpace=wrap;html=1;" parent="th7IaA2jTdw9Y4NXe-Cr-1" vertex="1">
          <mxGeometry x="52.5" y="410" width="120" height="40" as="geometry" />
        </mxCell>
        <mxCell id="th7IaA2jTdw9Y4NXe-Cr-17" value="&lt;p data-pm-slice=&quot;1 1 [&amp;quot;ordered_list&amp;quot;,{&amp;quot;spread&amp;quot;:true,&amp;quot;startingNumber&amp;quot;:1,&amp;quot;start&amp;quot;:73,&amp;quot;end&amp;quot;:869},&amp;quot;regular_list_item&amp;quot;,{&amp;quot;start&amp;quot;:73,&amp;quot;end&amp;quot;:292},&amp;quot;list&amp;quot;,{&amp;quot;spread&amp;quot;:false,&amp;quot;start&amp;quot;:92,&amp;quot;end&amp;quot;:292},&amp;quot;regular_list_item&amp;quot;,{&amp;quot;start&amp;quot;:92,&amp;quot;end&amp;quot;:112}]&quot;&gt;Réserver un Course&lt;/p&gt;" style="ellipse;whiteSpace=wrap;html=1;" parent="th7IaA2jTdw9Y4NXe-Cr-1" vertex="1">
          <mxGeometry x="52.5" y="140" width="120" height="40" as="geometry" />
        </mxCell>
        <mxCell id="th7IaA2jTdw9Y4NXe-Cr-28" value="S&#39;authentifier" style="ellipse;whiteSpace=wrap;html=1;" parent="th7IaA2jTdw9Y4NXe-Cr-1" vertex="1">
          <mxGeometry x="230" y="240" width="100" height="50" as="geometry" />
        </mxCell>
        <mxCell id="qY37AVXfgucppgOuBqr6-1" value="&lt;p data-pm-slice=&quot;1 1 [&amp;quot;ordered_list&amp;quot;,{&amp;quot;spread&amp;quot;:true,&amp;quot;startingNumber&amp;quot;:1,&amp;quot;start&amp;quot;:73,&amp;quot;end&amp;quot;:869},&amp;quot;regular_list_item&amp;quot;,{&amp;quot;start&amp;quot;:73,&amp;quot;end&amp;quot;:292},&amp;quot;list&amp;quot;,{&amp;quot;spread&amp;quot;:false,&amp;quot;start&amp;quot;:92,&amp;quot;end&amp;quot;:292},&amp;quot;regular_list_item&amp;quot;,{&amp;quot;start&amp;quot;:116,&amp;quot;end&amp;quot;:148}]&quot;&gt;Suivre le Livraison en temps réel&lt;/p&gt;" style="ellipse;whiteSpace=wrap;html=1;" parent="th7IaA2jTdw9Y4NXe-Cr-1" vertex="1">
          <mxGeometry x="47.5" y="197.5" width="130" height="60" as="geometry" />
        </mxCell>
        <mxCell id="qY37AVXfgucppgOuBqr6-3" value="" style="endArrow=classic;html=1;rounded=0;exitX=1;exitY=0.5;exitDx=0;exitDy=0;" parent="th7IaA2jTdw9Y4NXe-Cr-1" source="th7IaA2jTdw9Y4NXe-Cr-17" target="th7IaA2jTdw9Y4NXe-Cr-12" edge="1">
          <mxGeometry width="50" height="50" relative="1" as="geometry">
            <mxPoint x="300" y="230" as="sourcePoint" />
            <mxPoint x="350" y="180" as="targetPoint" />
          </mxGeometry>
        </mxCell>
        <mxCell id="qY37AVXfgucppgOuBqr6-10" value="&lt;p data-pm-slice=&quot;1 1 [&amp;quot;ordered_list&amp;quot;,{&amp;quot;spread&amp;quot;:true,&amp;quot;startingNumber&amp;quot;:1,&amp;quot;start&amp;quot;:73,&amp;quot;end&amp;quot;:869},&amp;quot;regular_list_item&amp;quot;,{&amp;quot;start&amp;quot;:73,&amp;quot;end&amp;quot;:292},&amp;quot;list&amp;quot;,{&amp;quot;spread&amp;quot;:false,&amp;quot;start&amp;quot;:92,&amp;quot;end&amp;quot;:292},&amp;quot;regular_list_item&amp;quot;,{&amp;quot;start&amp;quot;:186,&amp;quot;end&amp;quot;:224}]&quot;&gt;Valider la fin du trajet via QR Code&lt;/p&gt;" style="ellipse;whiteSpace=wrap;html=1;" parent="th7IaA2jTdw9Y4NXe-Cr-1" vertex="1">
          <mxGeometry x="420" y="230" width="110" height="60" as="geometry" />
        </mxCell>
        <mxCell id="qY37AVXfgucppgOuBqr6-17" value="&lt;p data-pm-slice=&quot;1 1 [&amp;quot;ordered_list&amp;quot;,{&amp;quot;spread&amp;quot;:true,&amp;quot;startingNumber&amp;quot;:1,&amp;quot;start&amp;quot;:73,&amp;quot;end&amp;quot;:869},&amp;quot;regular_list_item&amp;quot;,{&amp;quot;start&amp;quot;:73,&amp;quot;end&amp;quot;:292},&amp;quot;list&amp;quot;,{&amp;quot;spread&amp;quot;:false,&amp;quot;start&amp;quot;:92,&amp;quot;end&amp;quot;:292},&amp;quot;regular_list_item&amp;quot;,{&amp;quot;start&amp;quot;:228,&amp;quot;end&amp;quot;:264}]&quot;&gt;Consulter l&#39;historique des Course&lt;/p&gt;" style="ellipse;whiteSpace=wrap;html=1;" parent="th7IaA2jTdw9Y4NXe-Cr-1" vertex="1">
          <mxGeometry x="45.629999999999995" y="50" width="133.75" height="60" as="geometry" />
        </mxCell>
        <mxCell id="qY37AVXfgucppgOuBqr6-23" value="&lt;p data-pm-slice=&quot;1 1 [&amp;quot;ordered_list&amp;quot;,{&amp;quot;spread&amp;quot;:true,&amp;quot;startingNumber&amp;quot;:1,&amp;quot;start&amp;quot;:73,&amp;quot;end&amp;quot;:869},&amp;quot;regular_list_item&amp;quot;,{&amp;quot;start&amp;quot;:294,&amp;quot;end&amp;quot;:514},&amp;quot;list&amp;quot;,{&amp;quot;spread&amp;quot;:false,&amp;quot;start&amp;quot;:324,&amp;quot;end&amp;quot;:514},&amp;quot;regular_list_item&amp;quot;,{&amp;quot;start&amp;quot;:324,&amp;quot;end&amp;quot;:345}]&quot;&gt;Accepter une course&lt;/p&gt;" style="ellipse;whiteSpace=wrap;html=1;" parent="th7IaA2jTdw9Y4NXe-Cr-1" vertex="1">
          <mxGeometry x="55" y="330" width="115" height="40" as="geometry" />
        </mxCell>
        <mxCell id="qY37AVXfgucppgOuBqr6-22" value="include" style="html=1;verticalAlign=bottom;endArrow=block;curved=0;rounded=0;exitX=0.929;exitY=0.258;exitDx=0;exitDy=0;entryX=0.5;entryY=1;entryDx=0;entryDy=0;exitPerimeter=0;" parent="th7IaA2jTdw9Y4NXe-Cr-1" source="qY37AVXfgucppgOuBqr6-23" target="qY37AVXfgucppgOuBqr6-10" edge="1">
          <mxGeometry width="80" relative="1" as="geometry">
            <mxPoint x="250" y="260" as="sourcePoint" />
            <mxPoint x="330" y="260" as="targetPoint" />
            <Array as="points">
              <mxPoint x="475" y="340" />
            </Array>
          </mxGeometry>
        </mxCell>
        <mxCell id="qY37AVXfgucppgOuBqr6-30" value="include" style="html=1;verticalAlign=bottom;endArrow=block;curved=0;rounded=0;exitX=0;exitY=0.5;exitDx=0;exitDy=0;entryX=1;entryY=0.5;entryDx=0;entryDy=0;" parent="th7IaA2jTdw9Y4NXe-Cr-1" source="qY37AVXfgucppgOuBqr6-10" target="th7IaA2jTdw9Y4NXe-Cr-28" edge="1">
          <mxGeometry x="-0.0892" y="18" width="80" relative="1" as="geometry">
            <mxPoint x="270" y="260" as="sourcePoint" />
            <mxPoint x="330" y="320" as="targetPoint" />
            <mxPoint as="offset" />
          </mxGeometry>
        </mxCell>
        <mxCell id="qY37AVXfgucppgOuBqr6-31" value="&lt;p data-pm-slice=&quot;1 1 [&amp;quot;ordered_list&amp;quot;,{&amp;quot;spread&amp;quot;:true,&amp;quot;startingNumber&amp;quot;:1,&amp;quot;start&amp;quot;:73,&amp;quot;end&amp;quot;:869},&amp;quot;regular_list_item&amp;quot;,{&amp;quot;start&amp;quot;:664,&amp;quot;end&amp;quot;:869},&amp;quot;list&amp;quot;,{&amp;quot;spread&amp;quot;:false,&amp;quot;start&amp;quot;:691,&amp;quot;end&amp;quot;:869},&amp;quot;regular_list_item&amp;quot;,{&amp;quot;start&amp;quot;:789,&amp;quot;end&amp;quot;:827}]&quot;&gt;Superviser les Course et livraisons&lt;/p&gt;" style="ellipse;whiteSpace=wrap;html=1;" parent="th7IaA2jTdw9Y4NXe-Cr-1" vertex="1">
          <mxGeometry x="225" y="450" width="110" height="50" as="geometry" />
        </mxCell>
        <mxCell id="qY37AVXfgucppgOuBqr6-33" value="include" style="html=1;verticalAlign=bottom;endArrow=block;curved=0;rounded=0;exitX=0.5;exitY=0;exitDx=0;exitDy=0;entryX=0.5;entryY=1;entryDx=0;entryDy=0;" parent="th7IaA2jTdw9Y4NXe-Cr-1" source="qY37AVXfgucppgOuBqr6-31" target="th7IaA2jTdw9Y4NXe-Cr-28" edge="1">
          <mxGeometry width="80" relative="1" as="geometry">
            <mxPoint x="310" y="350" as="sourcePoint" />
            <mxPoint x="390" y="350" as="targetPoint" />
          </mxGeometry>
        </mxCell>
        <mxCell id="qY37AVXfgucppgOuBqr6-28" value="Include" style="html=1;verticalAlign=bottom;endArrow=block;curved=0;rounded=0;exitX=1;exitY=0.5;exitDx=0;exitDy=0;entryX=0;entryY=1;entryDx=0;entryDy=0;" parent="th7IaA2jTdw9Y4NXe-Cr-1" source="th7IaA2jTdw9Y4NXe-Cr-14" target="th7IaA2jTdw9Y4NXe-Cr-28" edge="1">
          <mxGeometry x="-0.0318" y="-4" width="80" relative="1" as="geometry">
            <mxPoint x="200" y="330" as="sourcePoint" />
            <mxPoint x="280" y="330" as="targetPoint" />
            <mxPoint as="offset" />
          </mxGeometry>
        </mxCell>
        <mxCell id="tvEps3ooRcnbISfFIifA-1" value="include" style="html=1;verticalAlign=bottom;endArrow=block;curved=0;rounded=0;exitX=1;exitY=1;exitDx=0;exitDy=0;entryX=0;entryY=0.5;entryDx=0;entryDy=0;" edge="1" parent="th7IaA2jTdw9Y4NXe-Cr-1" source="qY37AVXfgucppgOuBqr6-1" target="th7IaA2jTdw9Y4NXe-Cr-28">
          <mxGeometry x="0.3918" y="-11" width="80" relative="1" as="geometry">
            <mxPoint x="253" y="255" as="sourcePoint" />
            <mxPoint x="255" y="292" as="targetPoint" />
            <mxPoint as="offset" />
            <Array as="points" />
          </mxGeometry>
        </mxCell>
        <mxCell id="tvEps3ooRcnbISfFIifA-2" value="include" style="html=1;verticalAlign=bottom;endArrow=block;curved=0;rounded=0;exitX=0.5;exitY=0;exitDx=0;exitDy=0;entryX=0.5;entryY=1;entryDx=0;entryDy=0;" edge="1" parent="th7IaA2jTdw9Y4NXe-Cr-1" source="th7IaA2jTdw9Y4NXe-Cr-28" target="th7IaA2jTdw9Y4NXe-Cr-12">
          <mxGeometry x="-0.3333" width="80" relative="1" as="geometry">
            <mxPoint x="440" y="197.5" as="sourcePoint" />
            <mxPoint x="350" y="202.5" as="targetPoint" />
            <mxPoint as="offset" />
          </mxGeometry>
        </mxCell>
        <mxCell id="th7IaA2jTdw9Y4NXe-Cr-18" style="edgeStyle=orthogonalEdgeStyle;rounded=0;orthogonalLoop=1;jettySize=auto;html=1;exitX=0.5;exitY=0.5;exitDx=0;exitDy=0;exitPerimeter=0;entryX=0.5;entryY=0;entryDx=0;entryDy=0;" parent="th7IaA2jTdw9Y4NXe-Cr-1" source="th7IaA2jTdw9Y4NXe-Cr-6" target="th7IaA2jTdw9Y4NXe-Cr-10" edge="1">
          <mxGeometry relative="1" as="geometry">
            <Array as="points">
              <mxPoint x="-45" y="30" />
              <mxPoint x="330" y="30" />
            </Array>
          </mxGeometry>
        </mxCell>
        <mxCell id="th7IaA2jTdw9Y4NXe-Cr-2" value="Livreur" style="shape=umlActor;verticalLabelPosition=bottom;verticalAlign=top;html=1;outlineConnect=0;" parent="1" vertex="1">
          <mxGeometry x="30" y="300" width="30" height="60" as="geometry" />
        </mxCell>
        <mxCell id="th7IaA2jTdw9Y4NXe-Cr-20" style="edgeStyle=orthogonalEdgeStyle;rounded=0;orthogonalLoop=1;jettySize=auto;html=1;exitX=0.5;exitY=0.5;exitDx=0;exitDy=0;exitPerimeter=0;entryX=0;entryY=0.5;entryDx=0;entryDy=0;" parent="1" source="th7IaA2jTdw9Y4NXe-Cr-6" target="th7IaA2jTdw9Y4NXe-Cr-17" edge="1">
          <mxGeometry relative="1" as="geometry">
            <Array as="points">
              <mxPoint x="45" y="180" />
            </Array>
          </mxGeometry>
        </mxCell>
        <mxCell id="th7IaA2jTdw9Y4NXe-Cr-6" value="User" style="shape=umlActor;verticalLabelPosition=bottom;verticalAlign=top;html=1;outlineConnect=0;" parent="1" vertex="1">
          <mxGeometry x="30" y="90" width="30" height="60" as="geometry" />
        </mxCell>
        <mxCell id="th7IaA2jTdw9Y4NXe-Cr-26" style="edgeStyle=orthogonalEdgeStyle;rounded=0;orthogonalLoop=1;jettySize=auto;html=1;exitX=0.5;exitY=0.5;exitDx=0;exitDy=0;exitPerimeter=0;" parent="1" source="th7IaA2jTdw9Y4NXe-Cr-7" target="th7IaA2jTdw9Y4NXe-Cr-14" edge="1">
          <mxGeometry relative="1" as="geometry">
            <Array as="points">
              <mxPoint x="45" y="450" />
            </Array>
          </mxGeometry>
        </mxCell>
        <mxCell id="th7IaA2jTdw9Y4NXe-Cr-7" value="Admin" style="shape=umlActor;verticalLabelPosition=bottom;verticalAlign=top;html=1;outlineConnect=0;" parent="1" vertex="1">
          <mxGeometry x="30" y="430" width="30" height="60" as="geometry" />
        </mxCell>
        <mxCell id="qY37AVXfgucppgOuBqr6-2" value="" style="endArrow=classic;html=1;rounded=0;entryX=0.006;entryY=0.328;entryDx=0;entryDy=0;exitX=0.5;exitY=0.5;exitDx=0;exitDy=0;exitPerimeter=0;entryPerimeter=0;" parent="1" source="th7IaA2jTdw9Y4NXe-Cr-6" target="qY37AVXfgucppgOuBqr6-1" edge="1">
          <mxGeometry width="50" height="50" relative="1" as="geometry">
            <mxPoint x="380" y="240" as="sourcePoint" />
            <mxPoint x="430" y="190" as="targetPoint" />
            <Array as="points">
              <mxPoint x="45" y="200" />
            </Array>
          </mxGeometry>
        </mxCell>
        <mxCell id="qY37AVXfgucppgOuBqr6-18" value="" style="endArrow=classic;html=1;rounded=0;entryX=0;entryY=0.5;entryDx=0;entryDy=0;exitX=0.5;exitY=0.5;exitDx=0;exitDy=0;exitPerimeter=0;" parent="1" source="th7IaA2jTdw9Y4NXe-Cr-6" target="qY37AVXfgucppgOuBqr6-17" edge="1">
          <mxGeometry width="50" height="50" relative="1" as="geometry">
            <mxPoint x="350" y="290" as="sourcePoint" />
            <mxPoint x="400" y="240" as="targetPoint" />
          </mxGeometry>
        </mxCell>
        <mxCell id="qY37AVXfgucppgOuBqr6-21" value="" style="endArrow=classic;html=1;rounded=0;exitX=0.533;exitY=0.294;exitDx=0;exitDy=0;exitPerimeter=0;entryX=0;entryY=0.5;entryDx=0;entryDy=0;" parent="1" source="th7IaA2jTdw9Y4NXe-Cr-2" target="th7IaA2jTdw9Y4NXe-Cr-8" edge="1">
          <mxGeometry width="50" height="50" relative="1" as="geometry">
            <mxPoint x="360" y="310" as="sourcePoint" />
            <mxPoint x="410" y="260" as="targetPoint" />
          </mxGeometry>
        </mxCell>
        <mxCell id="qY37AVXfgucppgOuBqr6-24" value="" style="endArrow=classic;html=1;rounded=0;exitX=1;exitY=1;exitDx=0;exitDy=0;exitPerimeter=0;entryX=0.059;entryY=0.225;entryDx=0;entryDy=0;entryPerimeter=0;" parent="1" source="th7IaA2jTdw9Y4NXe-Cr-2" target="qY37AVXfgucppgOuBqr6-23" edge="1">
          <mxGeometry width="50" height="50" relative="1" as="geometry">
            <mxPoint x="360" y="310" as="sourcePoint" />
            <mxPoint x="410" y="260" as="targetPoint" />
          </mxGeometry>
        </mxCell>
        <mxCell id="qY37AVXfgucppgOuBqr6-25" value="" style="endArrow=classic;html=1;rounded=0;exitX=0.5;exitY=0.5;exitDx=0;exitDy=0;exitPerimeter=0;entryX=1;entryY=0.5;entryDx=0;entryDy=0;" parent="1" source="th7IaA2jTdw9Y4NXe-Cr-2" edge="1" target="th7IaA2jTdw9Y4NXe-Cr-10">
          <mxGeometry width="50" height="50" relative="1" as="geometry">
            <mxPoint x="360" y="310" as="sourcePoint" />
            <mxPoint x="490" y="80" as="targetPoint" />
            <Array as="points">
              <mxPoint x="10" y="330" />
              <mxPoint x="10" y="410" />
              <mxPoint x="45" y="410" />
              <mxPoint x="680" y="410" />
              <mxPoint x="680" y="80" />
            </Array>
          </mxGeometry>
        </mxCell>
        <mxCell id="qY37AVXfgucppgOuBqr6-32" value="" style="endArrow=classic;html=1;rounded=0;exitX=1;exitY=1;exitDx=0;exitDy=0;exitPerimeter=0;entryX=0;entryY=0.5;entryDx=0;entryDy=0;" parent="1" source="th7IaA2jTdw9Y4NXe-Cr-7" target="qY37AVXfgucppgOuBqr6-31" edge="1">
          <mxGeometry width="50" height="50" relative="1" as="geometry">
            <mxPoint x="410" y="400" as="sourcePoint" />
            <mxPoint x="460" y="350" as="targetPoint" />
          </mxGeometry>
        </mxCell>
      </root>
    </mxGraphModel>
  </diagram>
</mxfile>
